<svg width="30" height="30" viewBox="0 0 30 30" fill="none" xmlns="http://www.w3.org/2000/svg">
<path d="M27.773 0H2.213C2.205 0 2.196 0 2.186 0C0.987 0 0.014 0.964 0 2.159V27.831C0.014 29.027 0.987 29.992 2.186 29.992C2.196 29.992 2.205 29.992 2.215 29.992H27.77C27.778 29.992 27.788 29.992 27.798 29.992C28.998 29.992 29.973 29.029 29.992 27.833V27.831V2.161C29.973 0.964 28.998 0 27.797 0C27.787 0 27.778 0 27.768 0H27.773ZM8.895 25.558H4.441V11.247H8.895V25.558ZM6.669 9.289C5.244 9.289 4.09 8.134 4.09 6.71C4.09 5.286 5.245 4.131 6.669 4.131C8.093 4.131 9.248 5.285 9.248 6.709C9.248 6.71 9.248 6.711 9.248 6.713C9.248 8.136 8.094 9.29 6.671 9.29C6.67 9.29 6.669 9.29 6.668 9.29L6.669 9.289ZM25.551 25.558H21.11V18.599C21.11 16.939 21.076 14.804 18.796 14.804C16.48 14.804 16.127 16.61 16.127 18.477V25.559H11.686V11.248H15.952V13.199H16.01C16.838 11.804 18.336 10.884 20.049 10.884C20.11 10.884 20.17 10.885 20.23 10.887H20.221C24.721 10.887 25.553 13.849 25.553 17.704V25.559L25.551 25.558Z" fill="#616161"/>
</svg>
